<svg width="579" height="396" viewBox="0 0 579 396" fill="none" xmlns="http://www.w3.org/2000/svg">
<path d="M106.35 87.1464L94.6486 134.091L48.1424 147.429L13.338 113.823L25.0399 66.8782L71.5461 53.5399L106.35 87.1464Z" fill="#E1EDBF"/>
<path d="M209.886 185.844L198.184 232.789L151.678 246.127L116.874 212.52L128.576 165.576L175.082 152.238L209.886 185.844Z" fill="#E1EDBF"/>
<path d="M243.753 46.5062L232.051 93.4509L185.545 106.789L150.741 73.1827L162.443 26.238L208.949 12.8998L243.753 46.5062Z" fill="#C2D687"/>
<path d="M151.719 73.4527L186.108 106.658L174.546 153.043L128.595 166.222L94.206 133.016L105.768 86.6317L151.719 73.4527Z" stroke="#CADFEE"/>
<path d="M255.255 172.15L289.644 205.356L278.082 251.74L232.131 264.919L197.742 231.714L209.304 185.329L255.255 172.15Z" stroke="#C2D687"/>
<path d="M289.122 32.8124L323.511 66.0178L311.949 112.402L265.997 125.581L231.608 92.3759L243.171 45.9915L289.122 32.8124Z" stroke="#5F5F5F"/>
<path d="M94.6296 133.445L129.019 166.651L117.456 213.035L71.5052 226.214L37.1161 193.009L48.6783 146.624L94.6296 133.445Z" stroke="#5F5F5F"/>
<path d="M198.165 232.143L232.554 265.348L220.992 311.733L175.041 324.912L140.652 291.706L152.214 245.322L198.165 232.143Z" stroke="#5F5F5F"/>
<path d="M232.032 92.8051L266.421 126.01L254.859 172.395L208.908 185.574L174.518 152.369L186.081 105.984L232.032 92.8051Z" stroke="#CADFEE"/>
<path d="M348.017 144.775L336.316 191.719L289.809 205.058L255.005 171.451L266.707 124.506L313.213 111.168L348.017 144.775Z" fill="#E1EDBF"/>
<path d="M451.554 243.472L439.852 290.417L393.346 303.755L358.541 270.149L370.243 223.204L416.749 209.866L451.554 243.472Z" fill="#C2D687"/>
<path d="M485.42 104.135L473.718 151.079L427.212 164.417L392.408 130.811L404.11 83.8663L450.616 70.5281L485.42 104.135Z" fill="#C2D687"/>
<path d="M393.386 131.081L427.775 164.286L416.213 210.671L370.262 223.85L335.873 190.645L347.435 144.26L393.386 131.081Z" stroke="#CADFEE"/>
<path d="M496.923 229.778L531.312 262.984L519.749 309.368L473.798 322.547L439.409 289.342L450.971 242.958L496.923 229.778Z" stroke="#5F5F5F"/>
<path d="M530.789 90.4407L565.178 123.646L553.616 170.031L507.664 183.21L473.275 150.004L484.838 103.62L530.789 90.4407Z" stroke="#C2D687"/>
<path d="M336.297 191.074L370.686 224.279L359.123 270.663L313.172 283.842L278.783 250.637L290.345 204.253L336.297 191.074Z" stroke="#5F5F5F"/>
<path d="M439.832 289.771L474.221 322.977L462.659 369.361L416.708 382.54L382.319 349.335L393.881 302.95L439.832 289.771Z" stroke="#5F5F5F"/>
<path d="M473.699 150.433L508.088 183.639L496.526 230.023L450.575 243.202L416.185 209.997L427.748 163.612L473.699 150.433Z" stroke="#CADFEE"/>
</svg>
