<svg width="514" height="351" viewBox="0 0 514 351" fill="none" xmlns="http://www.w3.org/2000/svg">
<g opacity="0.3">
<path d="M94.2654 77.2434L83.8933 118.853L42.6719 130.676L11.8226 100.888L22.1947 59.2784L63.4161 47.4559L94.2654 77.2434Z" fill="#E1EDBF"/>
<path d="M186.035 164.725L175.663 206.335L134.442 218.158L103.593 188.37L113.965 146.76L155.186 134.938L186.035 164.725Z" fill="#E1EDBF"/>
<path d="M216.054 41.2214L205.682 82.8315L164.46 94.654L133.611 64.8665L143.983 23.2564L185.205 11.4339L216.054 41.2214Z" fill="#C2D687"/>
<path d="M134.462 65.1694L164.896 94.5559L154.664 135.606L113.998 147.269L83.5636 117.883L93.796 76.8328L134.462 65.1694Z" stroke="#CADFEE"/>
<path d="M226.233 152.651L256.667 182.038L246.435 223.088L205.768 234.751L175.334 205.365L185.567 164.315L226.233 152.651Z" stroke="#C2D687"/>
<path d="M256.251 29.1474L286.685 58.5339L276.453 99.5838L235.786 111.247L205.352 81.8606L215.585 40.8108L256.251 29.1474Z" stroke="#5F5F5F"/>
<path d="M83.8604 118.345L114.294 147.731L104.062 188.781L63.3955 200.444L32.9615 171.058L43.194 130.008L83.8604 118.345Z" stroke="#5F5F5F"/>
<path d="M175.63 205.827L206.064 235.213L195.832 276.263L155.166 287.926L124.732 258.54L134.964 217.49L175.63 205.827Z" stroke="#5F5F5F"/>
<path d="M205.649 82.3227L236.083 111.709L225.851 152.759L185.184 164.422L154.75 135.036L164.983 93.9861L205.649 82.3227Z" stroke="#CADFEE"/>
<path d="M308.47 128.323L298.098 169.933L256.876 181.756L226.027 151.968L236.399 110.358L277.621 98.5355L308.47 128.323Z" fill="#E1EDBF"/>
<path d="M400.24 215.805L389.868 257.415L348.647 269.238L317.797 239.45L328.169 197.84L369.391 186.017L400.24 215.805Z" fill="#C2D687"/>
<path d="M430.259 92.301L419.886 133.911L378.665 145.734L347.816 115.946L358.188 74.336L399.409 62.5135L430.259 92.301Z" fill="#C2D687"/>
<path d="M348.667 116.249L379.101 145.635L368.869 186.685L328.202 198.349L297.768 168.962L308.001 127.912L348.667 116.249Z" stroke="#CADFEE"/>
<path d="M440.438 203.731L470.872 233.117L460.639 274.167L419.973 285.831L389.539 256.444L399.771 215.394L440.438 203.731Z" stroke="#5F5F5F"/>
<path d="M470.456 80.227L500.89 109.613L490.657 150.663L449.991 162.327L419.557 132.94L429.789 91.8904L470.456 80.227Z" stroke="#C2D687"/>
<path d="M298.065 169.424L328.499 198.811L318.267 239.861L277.6 251.524L247.166 222.137L257.399 181.088L298.065 169.424Z" stroke="#5F5F5F"/>
<path d="M389.835 256.906L420.269 286.293L410.037 327.343L369.37 339.006L338.936 309.619L349.169 268.57L389.835 256.906Z" stroke="#5F5F5F"/>
<path d="M419.854 133.402L450.288 162.789L440.055 203.839L399.389 215.502L368.955 186.116L379.187 145.066L419.854 133.402Z" stroke="#CADFEE"/>
</g>
</svg>
