<svg width="20" height="20" viewBox="0 0 20 20" fill="none" xmlns="http://www.w3.org/2000/svg">
<path d="M17.4559 6.9208C17.4475 6.28965 17.3293 5.66478 17.1067 5.07413C16.9137 4.57592 16.6188 4.12346 16.241 3.74566C15.8632 3.36785 15.4108 3.07301 14.9126 2.87996C14.3295 2.6611 13.7135 2.54275 13.0909 2.52996C12.2892 2.49413 12.0351 2.48413 10.0001 2.48413C7.96506 2.48413 7.70423 2.48413 6.90839 2.52996C6.28602 2.54284 5.67035 2.66119 5.08756 2.87996C4.58927 3.07287 4.13674 3.36767 3.75892 3.74549C3.3811 4.12331 3.0863 4.57585 2.89339 5.07413C2.67408 5.65674 2.55599 6.27256 2.54423 6.89496C2.50839 7.69746 2.49756 7.95163 2.49756 9.98663C2.49756 12.0216 2.49756 12.2816 2.54423 13.0783C2.55673 13.7016 2.67423 14.3166 2.89339 14.9008C3.08662 15.3989 3.38164 15.8513 3.75959 16.2289C4.13754 16.6066 4.59011 16.9013 5.08839 17.0941C5.66959 17.3218 6.28537 17.4486 6.90923 17.4691C7.71173 17.505 7.96589 17.5158 10.0009 17.5158C12.0359 17.5158 12.2967 17.5158 13.0926 17.4691C13.7152 17.4569 14.3312 17.3388 14.9142 17.12C15.4123 16.9267 15.8646 16.6318 16.2424 16.254C16.6202 15.8762 16.9151 15.4239 17.1084 14.9258C17.3276 14.3425 17.4451 13.7275 17.4576 13.1033C17.4934 12.3016 17.5042 12.0475 17.5042 10.0116C17.5026 7.97663 17.5026 7.7183 17.4559 6.9208ZM9.99506 13.835C7.86673 13.835 6.14256 12.1108 6.14256 9.98246C6.14256 7.85413 7.86673 6.12996 9.99506 6.12996C11.0168 6.12996 11.9967 6.53585 12.7192 7.25834C13.4417 7.98082 13.8476 8.96072 13.8476 9.98246C13.8476 11.0042 13.4417 11.9841 12.7192 12.7066C11.9967 13.4291 11.0168 13.835 9.99506 13.835ZM14.0009 6.8858C13.8829 6.88591 13.766 6.86275 13.657 6.81764C13.5479 6.77253 13.4489 6.70637 13.3654 6.62293C13.282 6.53949 13.2158 6.44041 13.1707 6.33137C13.1256 6.22233 13.1024 6.10547 13.1026 5.98746C13.1026 5.86955 13.1258 5.75279 13.1709 5.64385C13.216 5.53491 13.2822 5.43592 13.3656 5.35254C13.4489 5.26916 13.5479 5.20302 13.6569 5.1579C13.7658 5.11277 13.8826 5.08955 14.0005 5.08955C14.1184 5.08955 14.2352 5.11277 14.3441 5.1579C14.453 5.20302 14.552 5.26916 14.6354 5.35254C14.7188 5.43592 14.7849 5.53491 14.83 5.64385C14.8752 5.75279 14.8984 5.86955 14.8984 5.98746C14.8984 6.48413 14.4967 6.8858 14.0009 6.8858Z" fill="black"/>
<path d="M9.99505 12.485C11.3771 12.485 12.4976 11.3646 12.4976 9.98248C12.4976 8.60039 11.3771 7.47998 9.99505 7.47998C8.61296 7.47998 7.49255 8.60039 7.49255 9.98248C7.49255 11.3646 8.61296 12.485 9.99505 12.485Z" fill="black"/>
</svg>
