<svg width="60" height="60" viewBox="0 0 60 60" fill="none" xmlns="http://www.w3.org/2000/svg">
<path d="M30 33.75C28.1458 33.75 26.3332 33.2002 24.7915 32.17C23.2498 31.1399 22.0482 29.6757 21.3386 27.9627C20.6291 26.2496 20.4434 24.3646 20.8051 22.546C21.1669 20.7275 22.0598 19.057 23.3709 17.7459C24.682 16.4348 26.3525 15.5419 28.171 15.1801C29.9896 14.8184 31.8746 15.0041 33.5877 15.7136C35.3007 16.4232 36.7649 17.6248 37.795 19.1665C38.8252 20.7082 39.375 22.5208 39.375 24.375C39.372 26.8605 38.3834 29.2433 36.6258 31.0008C34.8683 32.7584 32.4855 33.747 30 33.75ZM30 18.75C28.8875 18.75 27.7999 19.0799 26.8749 19.698C25.9499 20.3161 25.2289 21.1946 24.8032 22.2224C24.3774 23.2502 24.266 24.3812 24.4831 25.4724C24.7001 26.5635 25.2359 27.5658 26.0225 28.3525C26.8092 29.1392 27.8115 29.6749 28.9026 29.8919C29.9938 30.109 31.1248 29.9976 32.1526 29.5718C33.1804 29.1461 34.0589 28.4251 34.677 27.5001C35.2951 26.5751 35.625 25.4875 35.625 24.375C35.6235 22.8836 35.0304 21.4537 33.9758 20.3992C32.9213 19.3446 31.4914 18.7515 30 18.75Z" fill="#88486A"/>
<path d="M30 56.25L14.1825 37.5956C13.9627 37.3155 13.7452 37.0336 13.53 36.75C10.8281 33.1908 9.36847 28.8435 9.37502 24.375C9.37502 18.9049 11.548 13.6589 15.4159 9.79092C19.2839 5.92299 24.5299 3.75 30 3.75C35.4701 3.75 40.7162 5.92299 44.5841 9.79092C48.452 13.6589 50.625 18.9049 50.625 24.375C50.6316 28.8415 49.1726 33.1868 46.4719 36.7444L46.47 36.75C46.47 36.75 45.9075 37.4888 45.8231 37.5881L30 56.25ZM16.5225 34.4906C16.5263 34.4906 16.9613 35.0681 17.0606 35.1919L30 50.4525L42.9563 35.1712C43.0388 35.0681 43.4775 34.4869 43.4794 34.485C45.6866 31.5771 46.8794 28.0257 46.875 24.375C46.875 19.8995 45.0971 15.6072 41.9324 12.4426C38.7678 9.2779 34.4755 7.5 30 7.5C25.5245 7.5 21.2323 9.2779 18.0676 12.4426C14.9029 15.6072 13.125 19.8995 13.125 24.375C13.1211 28.0279 14.3152 31.5814 16.5244 34.4906H16.5225Z" fill="#88486A"/>
</svg>
