<svg width="60" height="60" viewBox="0 0 60 60" fill="none" xmlns="http://www.w3.org/2000/svg">
<path d="M7.5 22.6425V41.25C7.5 43.2391 8.29018 45.1468 9.6967 46.5533C11.1032 47.9598 13.0109 48.75 15 48.75H45C46.9891 48.75 48.8968 47.9598 50.3033 46.5533C51.7098 45.1468 52.5 43.2391 52.5 41.25V18.75C52.5 16.7609 51.7098 14.8532 50.3033 13.4467C48.8968 12.0402 46.9891 11.25 45 11.25H15C13.0109 11.25 11.1032 12.0402 9.6967 13.4467C8.29018 14.8532 7.5 16.7609 7.5 18.75V22.6425ZM15 15H45C45.9946 15 46.9484 15.3951 47.6516 16.0984C48.3549 16.8016 48.75 17.7554 48.75 18.75V21.525L30 31.62L11.25 21.525V18.75C11.25 17.7554 11.6451 16.8016 12.3483 16.0984C13.0516 15.3951 14.0054 15 15 15ZM11.25 25.785L29.1112 35.4C29.3844 35.547 29.6898 35.624 30 35.624C30.3102 35.624 30.6156 35.547 30.8888 35.4L48.75 25.785V41.25C48.75 42.2446 48.3549 43.1984 47.6516 43.9016C46.9484 44.6049 45.9946 45 45 45H15C14.0054 45 13.0516 44.6049 12.3483 43.9016C11.6451 43.1984 11.25 42.2446 11.25 41.25V25.785Z" fill="#88486A"/>
</svg>
