<svg width="60" height="60" viewBox="0 0 60 60" fill="none" xmlns="http://www.w3.org/2000/svg">
<path d="M46.2163 59.0667C45.6558 59.0651 45.0971 59.0036 44.5496 58.8833C34.1274 56.7273 24.5257 51.6723 16.8496 44.3C9.33742 36.9115 4.1273 27.5043 1.84964 17.2167C1.58108 15.9345 1.64699 14.6048 2.04105 13.3555C2.4351 12.1062 3.14404 10.9793 4.09964 10.0833L10.7663 3.66666C11.1068 3.34464 11.5114 3.09804 11.9537 2.94296C12.3959 2.78789 12.8659 2.72781 13.333 2.76666C13.8172 2.81718 14.2846 2.97318 14.7021 3.22369C15.1196 3.4742 15.4772 3.81314 15.7496 4.21666L24.083 16.5333C24.3955 17.0112 24.5463 17.5768 24.5133 18.1469C24.4803 18.7169 24.2652 19.2613 23.8996 19.7L19.7163 24.7C21.3824 28.3874 23.7419 31.7201 26.6663 34.5167C29.5718 37.4147 33.006 39.7287 36.783 41.3333L41.9663 37.2167C42.4017 36.8726 42.9314 36.6692 43.4851 36.6335C44.0389 36.5977 44.5904 36.7314 45.0663 37.0167L57.6496 45.15C58.0815 45.4078 58.4493 45.76 58.7257 46.1802C59.0021 46.6004 59.1798 47.0777 59.2455 47.5763C59.3113 48.0749 59.2633 48.582 59.1053 49.0594C58.9473 49.5369 58.6832 49.9724 58.333 50.3333L51.833 56.7667C51.0946 57.5014 50.2183 58.0828 49.2543 58.4776C48.2904 58.8723 47.2579 59.0725 46.2163 59.0667ZM13.0663 6.06666L6.39964 12.4833C5.86206 12.9842 5.46412 13.6165 5.24495 14.3178C5.02578 15.0191 4.99294 15.7654 5.14964 16.4833C7.26751 26.1369 12.1358 34.9705 19.1663 41.9167C26.39 48.8526 35.4257 53.6073 45.233 55.6333C45.9753 55.7885 46.7446 55.7571 47.4718 55.5418C48.199 55.3266 48.8614 54.9342 49.3996 54.4L55.8996 47.9667L43.7496 40.1167L38.183 44.55C37.9699 44.7187 37.7187 44.8327 37.4515 44.882C37.1842 44.9314 36.909 44.9147 36.6496 44.8333C32.0275 43.1303 27.8387 40.427 24.383 36.9167C20.8086 33.5787 18.034 29.4767 16.2663 24.9167C16.1915 24.6406 16.189 24.3499 16.2591 24.0726C16.3291 23.7953 16.4694 23.5407 16.6663 23.3333L21.1663 17.95L13.0663 6.06666Z" fill="#88486A"/>
</svg>
