<svg width="30" height="30" viewBox="0 0 30 30" fill="none" xmlns="http://www.w3.org/2000/svg">
<path d="M13.5529 22.105C15.4506 22.1046 17.2936 21.4694 18.7884 20.3004L23.4883 25L25 23.4883L20.3002 18.7888C21.4698 17.2938 22.1054 15.4505 22.1059 13.5525C22.1059 8.83686 18.2688 5 13.5529 5C8.83707 5 5 8.83686 5 13.5525C5 18.2681 8.83707 22.105 13.5529 22.105ZM13.5529 7.13812C17.0907 7.13812 19.9677 10.015 19.9677 13.5525C19.9677 17.09 17.0907 19.9669 13.5529 19.9669C10.0152 19.9669 7.13824 17.09 7.13824 13.5525C7.13824 10.015 10.0152 7.13812 13.5529 7.13812Z" fill="black"/>
<path d="M15.346 12.2155C15.7347 12.6951 15.949 13.3286 15.949 14H18C18.0009 13.3367 17.895 12.6798 17.6883 12.0672C17.4817 11.4547 17.1784 10.8986 16.7961 10.4311C15.2435 8.52297 12.5516 8.52297 11 10.4311L12.448 12.2181C13.2274 11.2615 14.5708 11.264 15.346 12.2155Z" fill="black"/>
</svg>
