<svg width="30" height="30" viewBox="0 0 30 30" fill="none" xmlns="http://www.w3.org/2000/svg">
<path d="M23.2154 21.3216C22.7137 20.1989 21.9856 19.1792 21.0718 18.3191C20.1607 17.4566 19.0814 16.7689 17.8936 16.294C17.883 16.2889 17.8723 16.2864 17.8617 16.2814C19.5186 15.1508 20.5957 13.309 20.5957 11.2312C20.5957 7.78894 17.6436 5 14 5C10.3564 5 7.4043 7.78894 7.4043 11.2312C7.4043 13.309 8.48142 15.1508 10.1383 16.2839C10.1277 16.2889 10.117 16.2915 10.1064 16.2965C8.91493 16.7714 7.84579 17.4523 6.92824 18.3216C6.01524 19.1823 5.2873 20.2019 4.78464 21.3241C4.29082 22.4227 4.02449 23.6006 4.00007 24.794C3.99936 24.8208 4.00434 24.8475 4.01471 24.8724C4.02508 24.8974 4.04064 24.9202 4.06047 24.9394C4.0803 24.9586 4.104 24.9738 4.13016 24.9842C4.15633 24.9946 4.18444 25 4.21283 25H5.80857C5.92559 25 6.01867 24.9121 6.02133 24.804C6.07452 22.8643 6.89898 21.0477 8.35642 19.6709C9.86439 18.2462 11.867 17.4623 14 17.4623C16.133 17.4623 18.1356 18.2462 19.6436 19.6709C21.101 21.0477 21.9255 22.8643 21.9787 24.804C21.9813 24.9146 22.0744 25 22.1914 25H23.7872C23.8156 25 23.8437 24.9946 23.8698 24.9842C23.896 24.9738 23.9197 24.9586 23.9395 24.9394C23.9594 24.9202 23.9749 24.8974 23.9853 24.8724C23.9957 24.8475 24.0006 24.8208 23.9999 24.794C23.9733 23.593 23.71 22.4246 23.2154 21.3216ZM14 15.5528C12.7793 15.5528 11.6303 15.103 10.766 14.2864C9.90162 13.4698 9.42556 12.3844 9.42556 11.2312C9.42556 10.0779 9.90162 8.99246 10.766 8.17588C11.6303 7.3593 12.7793 6.90955 14 6.90955C15.2207 6.90955 16.3697 7.3593 17.234 8.17588C18.0984 8.99246 18.5744 10.0779 18.5744 11.2312C18.5744 12.3844 18.0984 13.4698 17.234 14.2864C16.3697 15.103 15.2207 15.5528 14 15.5528Z" fill="black"/>
</svg>
